<svg width="489" height="71" viewBox="0 0 489 71" fill="none" xmlns="http://www.w3.org/2000/svg">
<path d="M20.3125 23.375C20.5 23.375 20.625 23.4271 20.6875 23.5312C20.7708 23.6354 20.8125 23.75 20.8125 23.875C20.8125 24.125 20.6354 24.4792 20.2812 24.9375C19.9271 25.3958 19.5312 25.9375 19.0938 26.5625C18.6562 27.1667 18.2604 27.8229 17.9062 28.5312C17.5521 29.2396 17.375 29.9479 17.375 30.6562C17.375 31.3854 17.4688 32.1979 17.6562 33.0938C17.8438 33.9896 18.0729 34.9167 18.3438 35.875C18.6354 36.8125 18.9479 37.7396 19.2812 38.6562C19.6146 39.5729 19.9375 40.4062 20.25 41.1562C20.3542 41.4688 20.5417 41.9479 20.8125 42.5938C21.0833 43.2188 21.3854 43.9167 21.7188 44.6875C22.0521 45.4583 22.4062 46.25 22.7812 47.0625C23.1771 47.875 23.5521 48.625 23.9062 49.3125C24.2604 49.9792 24.5833 50.5312 24.875 50.9688C25.1667 51.3854 25.3958 51.5938 25.5625 51.5938C25.7292 51.5938 25.9583 51.4167 26.25 51.0625C26.5417 50.6875 26.875 50.1771 27.25 49.5312C27.6458 48.8646 28.0938 48.0938 28.5938 47.2188C29.1146 46.3229 29.6771 45.3438 30.2812 44.2812C31.2188 42.6354 32.0417 41.1562 32.75 39.8438C33.4792 38.5312 34.1042 37.4167 34.625 36.5C35.1458 35.5833 35.5729 34.8854 35.9062 34.4062C36.2396 33.9062 36.5 33.6562 36.6875 33.6562C36.875 33.6562 37.1146 33.8125 37.4062 34.125C37.7188 34.4375 38.1562 35 38.7188 35.8125C39.3021 36.625 40.0521 37.7396 40.9688 39.1562C41.9062 40.5729 43.1042 42.3854 44.5625 44.5938C44.7917 44.9479 45.1146 45.4583 45.5312 46.125C45.9688 46.7917 46.4479 47.5312 46.9688 48.3438C47.4896 49.1562 48.0312 49.9896 48.5938 50.8438C49.1771 51.6771 49.7188 52.4375 50.2188 53.125C50.7396 53.8125 51.1979 54.3854 51.5938 54.8438C52.0104 55.2812 52.3125 55.5 52.5 55.5C52.7083 55.5 53 55.2292 53.375 54.6875C53.75 54.125 54.1562 53.4479 54.5938 52.6562C55.0312 51.8438 55.4688 50.9896 55.9062 50.0938C56.3646 49.1979 56.7604 48.3958 57.0938 47.6875C57.2396 47.375 57.4896 46.8333 57.8438 46.0625C58.1979 45.2917 58.6042 44.3646 59.0625 43.2812C59.5417 42.1979 60.0625 41 60.625 39.6875C61.1875 38.3542 61.7396 36.9896 62.2812 35.5938C62.8438 34.1979 63.3854 32.8021 63.9062 31.4062C64.4271 29.9896 64.8854 28.6562 65.2812 27.4062C65.6979 26.1562 66.0208 25.0312 66.25 24.0312C66.5 23.0104 66.625 22.1875 66.625 21.5625C66.625 21.0208 66.4479 20.5312 66.0938 20.0938C65.7396 19.6562 65.2396 19.2708 64.5938 18.9375C63.6146 18.4375 62.7396 18.0312 61.9688 17.7188C61.2188 17.3854 60.5729 17.1042 60.0312 16.875C59.5104 16.625 59.1146 16.4062 58.8438 16.2188C58.5729 16.0104 58.4375 15.7708 58.4375 15.5C58.4375 15.2708 58.5208 15.0938 58.6875 14.9688C58.8542 14.8438 59.0521 14.7812 59.2812 14.7812C59.5938 14.7812 60 14.875 60.5 15.0625C61 15.2292 61.6562 15.4479 62.4688 15.7188C63.3021 15.9688 64.3333 16.25 65.5625 16.5625C66.8125 16.875 68.3438 17.1562 70.1562 17.4062C71.5938 17.5938 72.9167 17.7292 74.125 17.8125C75.3333 17.875 76.4688 17.9062 77.5312 17.9062C78.1771 17.9062 78.7188 17.8958 79.1562 17.875C79.5938 17.8542 79.9479 17.8438 80.2188 17.8438C80.8021 17.8438 81.1979 17.9271 81.4062 18.0938C81.6354 18.2396 81.75 18.4375 81.75 18.6875C81.75 18.9375 81.6667 19.1354 81.5 19.2812C81.3333 19.4062 81.125 19.5104 80.875 19.5938C80.6458 19.6771 80.3854 19.7292 80.0938 19.75C79.8229 19.7708 79.5625 19.7812 79.3125 19.7812C78.2292 19.7812 77.3021 19.8125 76.5312 19.875C75.7812 19.9167 75.1146 20.0208 74.5312 20.1875C73.9688 20.3333 73.4583 20.5729 73 20.9062C72.5417 21.2188 72.0833 21.6354 71.625 22.1562C71.1458 22.6979 70.5938 23.5312 69.9688 24.6562C69.3438 25.7604 68.6771 27.0625 67.9688 28.5625C67.2604 30.0417 66.5104 31.6562 65.7188 33.4062C64.9479 35.1562 64.1667 36.9375 63.375 38.75C62.6042 40.5417 61.8333 42.3125 61.0625 44.0625C60.2917 45.8125 59.5521 47.4271 58.8438 48.9062C58.4062 49.8229 57.875 50.9688 57.25 52.3438C56.6458 53.6979 56 55.1354 55.3125 56.6562C54.625 58.1771 53.9271 59.6979 53.2188 61.2188C52.5312 62.7188 51.875 64.0729 51.25 65.2812C50.625 66.4896 50.0729 67.4688 49.5938 68.2188C49.1146 68.9896 48.7604 69.375 48.5312 69.375C48.1771 69.375 47.6042 68.625 46.8125 67.125C46.0417 65.6458 45.0104 63.5208 43.7188 60.75C42.9271 59.0208 42.1667 57.3333 41.4375 55.6875C40.7292 54.0208 40.0521 52.4583 39.4062 51C38.7812 49.5208 38.2083 48.1667 37.6875 46.9375C37.1667 45.7083 36.6979 44.6458 36.2812 43.75C35.8646 42.8542 35.5104 42.1562 35.2188 41.6562C34.9271 41.1562 34.7083 40.9062 34.5625 40.9062C34.4167 40.9062 34.1562 41.1875 33.7812 41.75C33.4271 42.3125 33 43.0312 32.5 43.9062C32.0208 44.7812 31.5104 45.75 30.9688 46.8125C30.4271 47.875 29.9062 48.8958 29.4062 49.875C28.9062 50.8542 28.4583 51.7396 28.0625 52.5312C27.6667 53.3229 27.3854 53.8854 27.2188 54.2188L22.5312 63.0938C22.2396 63.6146 21.9896 63.9792 21.7812 64.1875C21.5938 64.3958 21.3958 64.5 21.1875 64.5C20.8333 64.5 20.5 64.125 20.1875 63.375C19.9375 62.7917 19.6562 62.1146 19.3438 61.3438C19.0521 60.5729 18.7396 59.75 18.4062 58.875C18.0938 57.9792 17.7604 57.0625 17.4062 56.125C17.0729 55.1667 16.7396 54.2292 16.4062 53.3125C15.8021 51.625 15.2604 49.9896 14.7812 48.4062C14.3021 46.8021 13.8333 45.2917 13.375 43.875C12.9167 42.4375 12.4479 41.125 11.9688 39.9375C11.4896 38.75 10.9583 37.7292 10.375 36.875C9.79167 36 9.125 35.3229 8.375 34.8438C7.64583 34.3646 6.80208 34.125 5.84375 34.125C5.36458 34.125 4.89583 34.1562 4.4375 34.2188C4 34.2604 3.57292 34.3125 3.15625 34.375C2.76042 34.4375 2.38542 34.5 2.03125 34.5625C1.69792 34.6042 1.40625 34.625 1.15625 34.625C0.447917 34.625 0.09375 34.3646 0.09375 33.8438C0.09375 33.5521 0.1875 33.3438 0.375 33.2188C0.5625 33.0729 0.802083 32.9479 1.09375 32.8438C1.46875 32.7188 1.96875 32.6042 2.59375 32.5C3.21875 32.3958 3.9375 32.2396 4.75 32.0312C5.58333 31.8229 6.51042 31.5417 7.53125 31.1875C8.55208 30.8333 9.65625 30.3542 10.8438 29.75C12.5104 28.9167 13.8958 28.1146 15 27.3438C16.1042 26.5729 17.0104 25.8958 17.7188 25.3125C18.4479 24.7083 19 24.2396 19.375 23.9062C19.7708 23.5521 20.0833 23.375 20.3125 23.375ZM69.9062 44.8125C69.9062 42.4792 70.2708 40.375 71 38.5C71.7292 36.6042 72.7604 34.9896 74.0938 33.6562C75.4271 32.3229 77.0312 31.3021 78.9062 30.5938C80.8021 29.8646 82.8958 29.5 85.1875 29.5C87.25 29.5 89.1458 29.8438 90.875 30.5312C92.625 31.2188 94.1354 32.2083 95.4062 33.5C96.6771 34.7708 97.6667 36.3229 98.375 38.1562C99.1042 39.9688 99.4688 42.0104 99.4688 44.2812C99.4688 46.9688 99.0208 49.2708 98.125 51.1875C97.25 53.1042 96.1146 54.6771 94.7188 55.9062C93.3438 57.1354 91.8021 58.0417 90.0938 58.625C88.3854 59.1875 86.7083 59.4688 85.0625 59.4688C83.0833 59.4688 81.1771 59.1458 79.3438 58.5C77.5312 57.8333 75.9271 56.875 74.5312 55.625C73.1354 54.375 72.0104 52.8438 71.1562 51.0312C70.3229 49.1979 69.9062 47.125 69.9062 44.8125ZM84.75 30.7188C83.5625 30.7188 82.5312 31.0208 81.6562 31.625C80.8021 32.2083 80.0938 33.0104 79.5312 34.0312C78.9688 35.0312 78.5521 36.2083 78.2812 37.5625C78.0312 38.8958 77.9062 40.3021 77.9062 41.7812C77.9062 43.0104 77.9792 44.25 78.125 45.5C78.2708 46.75 78.4896 47.9583 78.7812 49.125C79.0938 50.2708 79.4688 51.3542 79.9062 52.375C80.3646 53.375 80.9062 54.25 81.5312 55C82.1562 55.75 82.8646 56.3438 83.6562 56.7812C84.4688 57.1979 85.3646 57.4062 86.3438 57.4062C87.6146 57.4062 88.6771 57.125 89.5312 56.5625C90.4062 55.9792 91.1042 55.2292 91.625 54.3125C92.1458 53.375 92.5104 52.3333 92.7188 51.1875C92.9479 50.0208 93.0625 48.8542 93.0625 47.6875C93.0625 44.8125 92.8542 42.3125 92.4375 40.1875C92.0208 38.0625 91.4375 36.3021 90.6875 34.9062C89.9375 33.4896 89.0521 32.4375 88.0312 31.75C87.0312 31.0625 85.9375 30.7188 84.75 30.7188ZM111.656 24.125C111.656 24.375 111.646 24.7292 111.625 25.1875C111.604 25.625 111.594 26.0833 111.594 26.5625C111.594 27.1667 111.625 27.8125 111.688 28.5C111.771 29.1667 111.865 29.7917 111.969 30.375C112.094 30.9375 112.208 31.4167 112.312 31.8125C112.438 32.1875 112.542 32.375 112.625 32.375C112.708 32.375 112.823 32.0729 112.969 31.4688C113.135 30.8646 113.365 30.1042 113.656 29.1875C113.969 28.2708 114.365 27.2917 114.844 26.25C115.323 25.1875 115.938 24.1979 116.688 23.2812C117.438 22.3646 118.333 21.6042 119.375 21C120.438 20.3958 121.688 20.0938 123.125 20.0938C124.458 20.0938 125.573 20.3229 126.469 20.7812C127.385 21.2396 128.115 21.8125 128.656 22.5C129.198 23.1875 129.583 23.9375 129.812 24.75C130.042 25.5417 130.156 26.2917 130.156 27C130.156 28.1042 130.01 29.0729 129.719 29.9062C129.427 30.7188 129.031 31.3958 128.531 31.9375C128.052 32.4792 127.5 32.8958 126.875 33.1875C126.25 33.4583 125.615 33.5938 124.969 33.5938C123.781 33.5938 122.812 33.3125 122.062 32.75C121.312 32.1875 120.938 31.3646 120.938 30.2812C120.938 29.6979 121.01 29.1979 121.156 28.7812C121.323 28.3646 121.531 28.0104 121.781 27.7188C122.052 27.4271 122.365 27.1875 122.719 27C123.094 26.7917 123.5 26.625 123.938 26.5C124.833 26.2292 125.438 25.8958 125.75 25.5C126.083 25.1042 126.25 24.6458 126.25 24.125C126.25 23.8125 126.188 23.5104 126.062 23.2188C125.958 22.9271 125.771 22.6667 125.5 22.4375C125.25 22.1875 124.917 21.9896 124.5 21.8438C124.104 21.6979 123.615 21.625 123.031 21.625C121.844 21.625 120.802 21.9062 119.906 22.4688C119.01 23.0104 118.229 23.75 117.562 24.6875C116.896 25.6042 116.344 26.6667 115.906 27.875C115.469 29.0833 115.115 30.3542 114.844 31.6875C114.573 33 114.375 34.3333 114.25 35.6875C114.146 37.0208 114.094 38.2708 114.094 39.4375C114.094 40.5 114.135 41.6562 114.219 42.9062C114.302 44.1354 114.406 45.375 114.531 46.625C114.677 47.875 114.833 49.0938 115 50.2812C115.167 51.4688 115.323 52.5521 115.469 53.5312C115.635 54.5104 115.781 55.3542 115.906 56.0625C116.031 56.7708 116.125 57.2604 116.188 57.5312C116.417 58.4688 116.771 59.125 117.25 59.5C117.75 59.8542 118.406 60.0312 119.219 60.0312C119.573 60.0312 119.938 60.0208 120.312 60C120.708 59.9792 121 59.9688 121.188 59.9688C121.75 59.9688 122.031 60.1771 122.031 60.5938C122.031 60.9271 121.875 61.1458 121.562 61.25C121.312 61.3542 120.865 61.4167 120.219 61.4375C119.594 61.4583 118.854 61.4792 118 61.5C117.167 61.5208 116.26 61.5521 115.281 61.5938C114.302 61.6354 113.354 61.7083 112.438 61.8125C111.417 61.9375 110.427 62.1146 109.469 62.3438C108.51 62.5521 107.625 62.7604 106.812 62.9688C106 63.1562 105.281 63.3229 104.656 63.4688C104.031 63.6146 103.531 63.6875 103.156 63.6875C102.76 63.6875 102.49 63.6042 102.344 63.4375C102.198 63.2708 102.125 63.0938 102.125 62.9062C102.125 62.5938 102.25 62.375 102.5 62.25C102.771 62.1042 103.135 61.9583 103.594 61.8125C103.948 61.7083 104.365 61.6042 104.844 61.5C105.344 61.375 105.927 61.1667 106.594 60.875C107.26 60.5833 107.719 60.1979 107.969 59.7188C108.24 59.2188 108.375 58.4688 108.375 57.4688C108.375 57.1562 108.354 56.6354 108.312 55.9062C108.271 55.1562 108.208 54.2708 108.125 53.25C108.062 52.2292 107.979 51.1146 107.875 49.9062C107.792 48.6771 107.698 47.4271 107.594 46.1562C107.49 44.8646 107.375 43.5833 107.25 42.3125C107.146 41.0417 107.042 39.8542 106.938 38.75C106.833 37.625 106.729 36.625 106.625 35.75C106.542 34.875 106.469 34.1771 106.406 33.6562C106.323 33.0312 106.198 32.5417 106.031 32.1875C105.865 31.8125 105.667 31.5312 105.438 31.3438C105.208 31.1562 104.938 31.0417 104.625 31C104.333 30.9375 104.01 30.9062 103.656 30.9062H102.375C102.271 30.9062 102.135 30.9062 101.969 30.9062C101.823 30.8854 101.677 30.8542 101.531 30.8125C101.385 30.75 101.26 30.6667 101.156 30.5625C101.073 30.4583 101.031 30.3229 101.031 30.1562C101.031 29.9271 101.125 29.7604 101.312 29.6562C101.5 29.5521 101.729 29.4792 102 29.4375C103.042 29.3125 103.979 29.1354 104.812 28.9062C105.667 28.6771 106.5 28.2604 107.312 27.6562C107.812 27.2604 108.333 26.7396 108.875 26.0938C109.438 25.4271 109.896 24.7292 110.25 24C110.5 23.4792 110.771 23.2188 111.062 23.2188C111.333 23.2188 111.5 23.3229 111.562 23.5312C111.625 23.7396 111.656 23.9375 111.656 24.125ZM143.688 5.5625C143.688 5.79167 143.688 6.33333 143.688 7.1875C143.688 8.04167 143.688 9.0625 143.688 10.25C143.708 11.4375 143.719 12.7083 143.719 14.0625C143.74 15.4167 143.771 16.7188 143.812 17.9688C143.854 19.7188 143.927 21.7396 144.031 24.0312C144.135 26.3229 144.24 28.7083 144.344 31.1875C144.469 33.6458 144.594 36.125 144.719 38.625C144.865 41.125 145 43.4688 145.125 45.6562C145.271 47.8229 145.396 49.75 145.5 51.4375C145.604 53.125 145.688 54.4062 145.75 55.2812C145.833 56.5104 146 57.4792 146.25 58.1875C146.5 58.8958 146.844 59.4583 147.281 59.875C147.74 60.2917 148.302 60.6146 148.969 60.8438C149.656 61.0729 150.479 61.3125 151.438 61.5625C151.792 61.6667 152.021 61.7812 152.125 61.9062C152.229 62.0312 152.281 62.1771 152.281 62.3438C152.281 62.5312 152.208 62.6979 152.062 62.8438C151.917 62.9688 151.646 63.0312 151.25 63.0312C151.062 63.0312 150.677 63.0104 150.094 62.9688C149.531 62.9271 148.865 62.875 148.094 62.8125C147.323 62.75 146.479 62.6979 145.562 62.6562C144.667 62.6146 143.792 62.5938 142.938 62.5938C142.25 62.5938 141.521 62.625 140.75 62.6875C139.979 62.75 139.229 62.8125 138.5 62.875C137.771 62.9375 137.083 63 136.438 63.0625C135.812 63.125 135.292 63.1562 134.875 63.1562C134.583 63.1562 134.292 63.1042 134 63C133.729 62.8958 133.594 62.6562 133.594 62.2812C133.594 61.7188 134 61.4375 134.812 61.4375C135.354 61.4375 135.958 61.4062 136.625 61.3438C137.312 61.2812 137.875 61.1667 138.312 61C138.667 60.875 138.948 60.6979 139.156 60.4688C139.365 60.2396 139.521 59.9896 139.625 59.7188C139.75 59.4271 139.833 59.1354 139.875 58.8438C139.917 58.5312 139.938 58.2188 139.938 57.9062C139.938 57.5312 139.906 56.9375 139.844 56.125C139.802 55.2917 139.74 54.3229 139.656 53.2188C139.573 52.1146 139.469 50.8958 139.344 49.5625C139.24 48.2292 139.125 46.8646 139 45.4688C138.875 44.0521 138.75 42.6458 138.625 41.25C138.5 39.8542 138.375 38.5312 138.25 37.2812C138.125 36.0312 138.01 34.8958 137.906 33.875C137.823 32.8542 137.75 32.0208 137.688 31.375C137.583 30.4167 137.479 29.4271 137.375 28.4062C137.271 27.3646 137.167 26.3438 137.062 25.3438C136.958 24.3438 136.844 23.3854 136.719 22.4688C136.594 21.5521 136.469 20.7188 136.344 19.9688C136.219 19.2396 136 18.6771 135.688 18.2812C135.396 17.8646 134.948 17.6562 134.344 17.6562C133.865 17.6562 133.302 17.7708 132.656 18C132.031 18.2292 131.396 18.4792 130.75 18.75C130.104 19.0208 129.5 19.2708 128.938 19.5C128.354 19.7292 127.896 19.8438 127.562 19.8438C127.333 19.8438 127.135 19.7917 126.969 19.6875C126.781 19.5625 126.688 19.3542 126.688 19.0625C126.688 18.6667 126.896 18.3333 127.312 18.0625C127.5 17.9167 127.75 17.7708 128.062 17.625C128.375 17.4792 128.792 17.2812 129.312 17.0312C129.812 16.7604 130.438 16.4062 131.188 15.9688C131.938 15.5312 132.844 14.9479 133.906 14.2188C135.031 13.4479 136.052 12.6354 136.969 11.7812C137.885 10.9271 138.698 10.1042 139.406 9.3125C140.135 8.5 140.74 7.76042 141.219 7.09375C141.719 6.42708 142.094 5.89583 142.344 5.5C142.573 5.1875 142.75 4.9375 142.875 4.75C143 4.5625 143.146 4.46875 143.312 4.46875C143.479 4.46875 143.583 4.59375 143.625 4.84375C143.667 5.07292 143.688 5.3125 143.688 5.5625ZM179.219 0.5625C179.385 0.5625 179.49 0.71875 179.531 1.03125C179.594 1.32292 179.625 1.72917 179.625 2.25C179.625 3.875 179.604 5.63542 179.562 7.53125C179.542 9.40625 179.51 11.375 179.469 13.4375C179.427 15.4792 179.375 17.5833 179.312 19.75C179.271 21.8958 179.219 24.0417 179.156 26.1875C179.094 29.2083 179.031 32.1562 178.969 35.0312C178.906 37.9062 178.854 40.5521 178.812 42.9688C178.771 45.3646 178.729 47.4583 178.688 49.25C178.667 51.0417 178.656 52.375 178.656 53.25C178.656 54.25 178.74 55.0729 178.906 55.7188C179.073 56.3646 179.292 56.8958 179.562 57.3125C179.833 57.7083 180.146 58.0104 180.5 58.2188C180.875 58.4271 181.26 58.6042 181.656 58.75C182.177 58.9375 182.677 59.0729 183.156 59.1562C183.656 59.2188 184.094 59.2708 184.469 59.3125C184.844 59.3542 185.135 59.4167 185.344 59.5C185.573 59.5833 185.688 59.7396 185.688 59.9688C185.688 60.2812 185.458 60.4792 185 60.5625C184.562 60.6458 184.094 60.6875 183.594 60.6875C182.885 60.6875 181.906 60.6354 180.656 60.5312C179.406 60.4062 177.969 60.3438 176.344 60.3438C175.552 60.3438 174.76 60.3854 173.969 60.4688C173.177 60.5521 172.333 60.6458 171.438 60.75C170.562 60.8333 169.594 60.9167 168.531 61C167.49 61.0833 166.302 61.125 164.969 61.125C163.094 61.125 161.333 60.8958 159.688 60.4375C158.042 59.9792 156.604 59.2604 155.375 58.2812C154.146 57.2812 153.177 56 152.469 54.4375C151.76 52.8542 151.406 50.9479 151.406 48.7188C151.406 46.7396 151.76 44.9792 152.469 43.4375C153.198 41.875 154.177 40.5625 155.406 39.5C156.656 38.4375 158.104 37.625 159.75 37.0625C161.417 36.5 163.177 36.2188 165.031 36.2188C166.969 36.2188 168.583 36.375 169.875 36.6875C171.188 37 172.24 37.3125 173.031 37.625C173.031 35.625 173.01 33.5938 172.969 31.5312C172.927 29.4479 172.875 27.4271 172.812 25.4688C172.771 23.4896 172.719 21.625 172.656 19.875C172.615 18.125 172.562 16.5833 172.5 15.25C172.458 13.9167 172.417 12.8333 172.375 12C172.333 11.1667 172.312 10.6875 172.312 10.5625C172.292 10.25 172.26 9.94792 172.219 9.65625C172.198 9.34375 172.146 9.07292 172.062 8.84375C172 8.59375 171.896 8.40625 171.75 8.28125C171.604 8.13542 171.406 8.0625 171.156 8.0625C170.844 8.0625 170.49 8.13542 170.094 8.28125C169.698 8.40625 169.292 8.55208 168.875 8.71875C168.479 8.86458 168.083 9.01042 167.688 9.15625C167.292 9.28125 166.938 9.34375 166.625 9.34375C166.438 9.34375 166.26 9.3125 166.094 9.25C165.927 9.16667 165.844 9.01042 165.844 8.78125C165.844 8.51042 165.938 8.29167 166.125 8.125C166.333 7.95833 166.625 7.79167 167 7.625C167.271 7.5 167.583 7.38542 167.938 7.28125C168.292 7.15625 168.719 6.98958 169.219 6.78125C169.74 6.55208 170.354 6.27083 171.062 5.9375C171.771 5.58333 172.615 5.11458 173.594 4.53125C174.552 3.96875 175.354 3.44792 176 2.96875C176.667 2.48958 177.208 2.07292 177.625 1.71875C178.062 1.36458 178.396 1.08333 178.625 0.875C178.875 0.666667 179.073 0.5625 179.219 0.5625ZM173.281 52.2812C173.281 51.3646 173.271 50.375 173.25 49.3125C173.25 48.2292 173.24 47.1354 173.219 46.0312C173.219 44.9062 173.198 43.7917 173.156 42.6875C173.135 41.5833 173.115 40.5417 173.094 39.5625C172.448 39.2292 171.656 38.9583 170.719 38.75C169.781 38.5208 168.74 38.4062 167.594 38.4062C166.198 38.4062 164.969 38.6458 163.906 39.125C162.844 39.6042 161.948 40.2812 161.219 41.1562C160.49 42.0312 159.938 43.0833 159.562 44.3125C159.188 45.5417 159 46.9167 159 48.4375C159 50.0625 159.177 51.5417 159.531 52.875C159.885 54.1875 160.406 55.3125 161.094 56.25C161.802 57.1875 162.688 57.9167 163.75 58.4375C164.812 58.9375 166.052 59.1875 167.469 59.1875C168.677 59.1875 169.667 59 170.438 58.625C171.229 58.2292 171.833 57.7396 172.25 57.1562C172.667 56.5729 172.938 55.875 173.062 55.0625C173.208 54.25 173.281 53.3229 173.281 52.2812ZM243.031 9.90625C243.323 9.90625 243.5 10.0521 243.562 10.3438C243.646 10.6354 243.688 11.0104 243.688 11.4688C243.688 11.7188 243.667 12.2188 243.625 12.9688C243.583 13.7188 243.562 14.6458 243.562 15.75C243.562 17.6875 243.635 19.375 243.781 20.8125C243.948 22.2292 244.135 23.4688 244.344 24.5312C244.552 25.5729 244.771 26.4583 245 27.1875C245.229 27.9167 245.427 28.5417 245.594 29.0625C245.719 29.4792 245.875 29.9896 246.062 30.5938C246.271 31.1771 246.375 31.6667 246.375 32.0625C246.375 32.3958 246.24 32.5625 245.969 32.5625C245.74 32.5417 245.469 32.3958 245.156 32.125C244.844 31.8333 244.51 31.4896 244.156 31.0938C243.823 30.6979 243.49 30.2812 243.156 29.8438C242.844 29.4062 242.573 29.0208 242.344 28.6875C241.406 27.4375 240.438 26.3229 239.438 25.3438C238.438 24.3646 237.323 23.5312 236.094 22.8438C234.885 22.1562 233.531 21.6354 232.031 21.2812C230.552 20.9271 228.865 20.75 226.969 20.75C224.802 20.75 222.771 21.1771 220.875 22.0312C218.979 22.8646 217.323 24.1458 215.906 25.875C214.51 27.6042 213.396 29.7812 212.562 32.4062C211.75 35.0104 211.344 38.0729 211.344 41.5938C211.344 44.8438 211.625 47.7396 212.188 50.2812C212.771 52.8021 213.542 55.0104 214.5 56.9062C215.458 58.7812 216.562 60.375 217.812 61.6875C219.083 62.9792 220.406 64.0312 221.781 64.8438C223.177 65.6562 224.583 66.2396 226 66.5938C227.417 66.9479 228.76 67.125 230.031 67.125C231.99 67.125 233.729 66.8854 235.25 66.4062C236.771 65.9271 238.115 65.2812 239.281 64.4688C240.448 63.6771 241.448 62.7604 242.281 61.7188C243.115 60.6771 243.812 59.5938 244.375 58.4688C244.938 57.3229 245.385 56.1875 245.719 55.0625C246.052 53.9167 246.292 52.8438 246.438 51.8438C246.521 51.2188 246.583 50.5938 246.625 49.9688C246.688 49.3229 246.74 48.7396 246.781 48.2188C246.844 47.6979 246.917 47.2812 247 46.9688C247.104 46.6354 247.25 46.4688 247.438 46.4688C248.042 46.4688 248.344 47.5312 248.344 49.6562C248.344 50.1979 248.302 50.9062 248.219 51.7812C248.156 52.6562 248 53.6354 247.75 54.7188C247.521 55.8021 247.188 56.9479 246.75 58.1562C246.312 59.3438 245.729 60.5312 245 61.7188C244.292 62.8854 243.417 64 242.375 65.0625C241.354 66.125 240.125 67.0625 238.688 67.875C237.25 68.6875 235.583 69.3333 233.688 69.8125C231.812 70.2917 229.677 70.5312 227.281 70.5312C225.26 70.5312 223.219 70.3229 221.156 69.9062C219.115 69.4896 217.146 68.8438 215.25 67.9688C213.375 67.1146 211.615 66.0104 209.969 64.6562C208.344 63.3229 206.927 61.7292 205.719 59.875C204.51 58 203.552 55.8646 202.844 53.4688C202.156 51.0521 201.812 48.3542 201.812 45.375C201.812 41.8125 202.188 38.6875 202.938 36C203.688 33.3125 204.698 30.9896 205.969 29.0312C207.24 27.0729 208.698 25.4583 210.344 24.1875C212.01 22.8958 213.75 21.8646 215.562 21.0938C217.396 20.3229 219.24 19.7812 221.094 19.4688C222.969 19.1562 224.74 19 226.406 19C227.656 19 228.792 19.0521 229.812 19.1562C230.854 19.2604 231.802 19.375 232.656 19.5C233.531 19.6042 234.323 19.7083 235.031 19.8125C235.76 19.9167 236.427 19.9688 237.031 19.9688C238.094 19.9688 238.979 19.75 239.688 19.3125C240.396 18.8542 240.917 17.9896 241.25 16.7188C241.458 15.8438 241.604 15 241.688 14.1875C241.792 13.375 241.885 12.6562 241.969 12.0312C242.073 11.3854 242.198 10.875 242.344 10.5C242.49 10.1042 242.719 9.90625 243.031 9.90625ZM250.344 44.8125C250.344 42.4792 250.708 40.375 251.438 38.5C252.167 36.6042 253.198 34.9896 254.531 33.6562C255.865 32.3229 257.469 31.3021 259.344 30.5938C261.24 29.8646 263.333 29.5 265.625 29.5C267.688 29.5 269.583 29.8438 271.312 30.5312C273.062 31.2188 274.573 32.2083 275.844 33.5C277.115 34.7708 278.104 36.3229 278.812 38.1562C279.542 39.9688 279.906 42.0104 279.906 44.2812C279.906 46.9688 279.458 49.2708 278.562 51.1875C277.688 53.1042 276.552 54.6771 275.156 55.9062C273.781 57.1354 272.24 58.0417 270.531 58.625C268.823 59.1875 267.146 59.4688 265.5 59.4688C263.521 59.4688 261.615 59.1458 259.781 58.5C257.969 57.8333 256.365 56.875 254.969 55.625C253.573 54.375 252.448 52.8438 251.594 51.0312C250.76 49.1979 250.344 47.125 250.344 44.8125ZM265.188 30.7188C264 30.7188 262.969 31.0208 262.094 31.625C261.24 32.2083 260.531 33.0104 259.969 34.0312C259.406 35.0312 258.99 36.2083 258.719 37.5625C258.469 38.8958 258.344 40.3021 258.344 41.7812C258.344 43.0104 258.417 44.25 258.562 45.5C258.708 46.75 258.927 47.9583 259.219 49.125C259.531 50.2708 259.906 51.3542 260.344 52.375C260.802 53.375 261.344 54.25 261.969 55C262.594 55.75 263.302 56.3438 264.094 56.7812C264.906 57.1979 265.802 57.4062 266.781 57.4062C268.052 57.4062 269.115 57.125 269.969 56.5625C270.844 55.9792 271.542 55.2292 272.062 54.3125C272.583 53.375 272.948 52.3333 273.156 51.1875C273.385 50.0208 273.5 48.8542 273.5 47.6875C273.5 44.8125 273.292 42.3125 272.875 40.1875C272.458 38.0625 271.875 36.3021 271.125 34.9062C270.375 33.4896 269.49 32.4375 268.469 31.75C267.469 31.0625 266.375 30.7188 265.188 30.7188ZM292.812 29.25C292.938 29.25 293.052 29.3438 293.156 29.5312C293.26 29.7188 293.375 30.1979 293.5 30.9688C293.792 32.7188 294.042 34.3021 294.25 35.7188C294.458 37.1354 294.677 38.4375 294.906 39.625C295.406 42.3542 295.896 44.7917 296.375 46.9375C296.875 49.0833 297.458 50.8958 298.125 52.375C298.792 53.8542 299.604 54.9792 300.562 55.75C301.542 56.5208 302.771 56.9062 304.25 56.9062C305.312 56.9062 306.24 56.6667 307.031 56.1875C307.823 55.6875 308.49 55.0312 309.031 54.2188C309.594 53.3854 310.052 52.4375 310.406 51.375C310.76 50.3125 311.031 49.2188 311.219 48.0938C311.427 46.9479 311.562 45.8125 311.625 44.6875C311.708 43.5417 311.75 42.4896 311.75 41.5312C311.75 40.6354 311.729 39.75 311.688 38.875C311.646 38 311.5 37.2188 311.25 36.5312C311 35.8229 310.604 35.2604 310.062 34.8438C309.542 34.4062 308.781 34.1875 307.781 34.1875C307.177 34.1875 306.562 34.2396 305.938 34.3438C305.312 34.4479 304.708 34.5 304.125 34.5C303.833 34.5 303.583 34.4375 303.375 34.3125C303.188 34.1875 303.094 33.9896 303.094 33.7188C303.094 33.4062 303.208 33.1979 303.438 33.0938C303.667 32.9688 303.958 32.8854 304.312 32.8438C304.688 32.8229 305.125 32.7917 305.625 32.75C306.125 32.7083 306.667 32.6458 307.25 32.5625C307.854 32.4583 308.49 32.3333 309.156 32.1875C309.823 32.0208 310.51 31.7917 311.219 31.5C311.802 31.25 312.354 30.9583 312.875 30.625C313.417 30.2917 313.896 29.9792 314.312 29.6875C314.75 29.375 315.125 29.1146 315.438 28.9062C315.771 28.6979 316.031 28.5938 316.219 28.5938C316.448 28.5938 316.594 28.7812 316.656 29.1562C316.74 29.5104 316.812 30.0104 316.875 30.6562C316.958 31.5312 317.042 32.6771 317.125 34.0938C317.229 35.5104 317.344 37.0729 317.469 38.7812C317.615 40.4896 317.771 42.2812 317.938 44.1562C318.125 46.0104 318.344 47.8438 318.594 49.6562C318.719 50.6146 318.896 51.3958 319.125 52C319.354 52.5833 319.625 53.0417 319.938 53.375C320.25 53.7083 320.594 53.9375 320.969 54.0625C321.365 54.1667 321.792 54.2188 322.25 54.2188C323.188 54.2188 324.042 54.1458 324.812 54C325.604 53.8333 326.198 53.75 326.594 53.75C326.99 53.75 327.25 53.8229 327.375 53.9688C327.5 54.1146 327.562 54.2812 327.562 54.4688C327.562 54.6562 327.5 54.8438 327.375 55.0312C327.25 55.1979 326.99 55.3333 326.594 55.4375C326.01 55.5625 325.208 55.6875 324.188 55.8125C323.167 55.9167 321.958 56.0625 320.562 56.25C319.438 56.4167 318.469 56.6042 317.656 56.8125C316.865 57 316.24 57.0938 315.781 57.0938C315.323 57.0938 314.969 56.9896 314.719 56.7812C314.49 56.5729 314.312 56.1667 314.188 55.5625C314.062 54.9583 313.938 54.3021 313.812 53.5938C313.688 52.8646 313.562 52.1354 313.438 51.4062C313.333 50.6771 313.219 49.9479 313.094 49.2188C312.99 48.4896 312.885 47.8021 312.781 47.1562C312.615 48.2812 312.406 49.4479 312.156 50.6562C311.906 51.8646 311.573 53.0521 311.156 54.2188C310.76 55.3646 310.271 56.4583 309.688 57.5C309.125 58.5208 308.438 59.4167 307.625 60.1875C306.812 60.9583 305.865 61.5729 304.781 62.0312C303.719 62.4896 302.5 62.7188 301.125 62.7188C298.875 62.7188 296.948 62.125 295.344 60.9375C293.76 59.7292 292.552 58.0208 291.719 55.8125C291.24 54.6042 290.854 53.3229 290.562 51.9688C290.271 50.6146 290.031 49.2917 289.844 48C289.656 46.7083 289.5 45.5104 289.375 44.4062C289.271 43.2812 289.156 42.3438 289.031 41.5938C288.906 40.8229 288.74 40.1875 288.531 39.6875C288.344 39.1667 288.125 38.7604 287.875 38.4688C287.625 38.1771 287.344 37.9792 287.031 37.875C286.74 37.75 286.427 37.6875 286.094 37.6875C285.76 37.6875 285.396 37.7396 285 37.8438C284.625 37.9271 284.24 38.0312 283.844 38.1562C283.469 38.2604 283.104 38.3646 282.75 38.4688C282.396 38.5521 282.073 38.5938 281.781 38.5938C281.594 38.5938 281.396 38.5417 281.188 38.4375C281 38.3125 280.906 38.0833 280.906 37.75C280.906 37.375 281.073 37.125 281.406 37C281.74 36.8542 282.167 36.6979 282.688 36.5312C283.333 36.3438 284.094 36.0625 284.969 35.6875C285.865 35.3125 286.812 34.7917 287.812 34.125C288.646 33.5625 289.333 33 289.875 32.4375C290.438 31.8542 290.896 31.3333 291.25 30.875C291.625 30.3958 291.927 30.0104 292.156 29.7188C292.406 29.4062 292.625 29.25 292.812 29.25ZM333 23.75C333.167 23.75 333.333 24.0208 333.5 24.5625C333.667 25.0833 333.833 25.7708 334 26.625C334.167 27.4792 334.333 28.4688 334.5 29.5938C334.667 30.6979 334.833 31.8229 335 32.9688L336.125 40.8438C336.229 40.1562 336.406 39.3646 336.656 38.4688C336.927 37.5729 337.281 36.6458 337.719 35.6875C338.156 34.7292 338.688 33.7917 339.312 32.875C339.938 31.9583 340.656 31.1354 341.469 30.4062C342.302 29.6771 343.229 29.0938 344.25 28.6562C345.292 28.1979 346.448 27.9688 347.719 27.9688C349.281 27.9688 350.635 28.2708 351.781 28.875C352.927 29.4583 353.875 30.2812 354.625 31.3438C355.375 32.3854 355.927 33.6354 356.281 35.0938C356.635 36.5521 356.812 38.1458 356.812 39.875C356.812 41.4375 356.719 43.0104 356.531 44.5938C356.365 46.1562 356.177 47.6979 355.969 49.2188C355.781 50.7396 355.594 52.2083 355.406 53.625C355.24 55.0417 355.156 56.3646 355.156 57.5938C355.156 58.3229 355.219 58.9583 355.344 59.5C355.469 60.0417 355.656 60.5417 355.906 61C356.198 61.4375 356.552 61.8229 356.969 62.1562C357.406 62.4688 357.812 62.7708 358.188 63.0625C358.583 63.3333 358.917 63.6146 359.188 63.9062C359.479 64.1771 359.625 64.4688 359.625 64.7812C359.625 64.9688 359.573 65.125 359.469 65.25C359.365 65.3958 359.188 65.4688 358.938 65.4688C358.562 65.4688 358.146 65.3229 357.688 65.0312C357.25 64.7604 356.698 64.4167 356.031 64C355.385 63.5625 354.604 63.1042 353.688 62.625C352.771 62.125 351.656 61.6667 350.344 61.25C349.365 60.9167 348.375 60.6562 347.375 60.4688C346.396 60.2812 345.25 60.1562 343.938 60.0938C343.208 60.0312 342.844 59.8229 342.844 59.4688C342.844 59.0729 343.083 58.875 343.562 58.875C343.854 58.875 344.26 58.875 344.781 58.875C345.302 58.875 345.833 58.8542 346.375 58.8125C347.208 58.75 347.896 58.5 348.438 58.0625C348.979 57.6042 349.385 56.7708 349.656 55.5625C349.74 55.0833 349.823 54.4792 349.906 53.75C349.99 53 350.062 52.2083 350.125 51.375C350.188 50.5208 350.24 49.6562 350.281 48.7812C350.323 47.9062 350.344 47.0729 350.344 46.2812C350.344 45.5729 350.333 44.7604 350.312 43.8438C350.292 42.9062 350.219 41.9375 350.094 40.9375C349.99 39.9375 349.812 38.9583 349.562 38C349.333 37.0417 348.99 36.1875 348.531 35.4375C348.073 34.6875 347.49 34.0833 346.781 33.625C346.073 33.1458 345.208 32.9062 344.188 32.9062C343.312 32.9062 342.51 33.125 341.781 33.5625C341.073 34 340.438 34.6146 339.875 35.4062C339.312 36.1771 338.833 37.0938 338.438 38.1562C338.042 39.2188 337.74 40.3854 337.531 41.6562C337.302 42.9479 337.146 44.2812 337.062 45.6562C337 47.0104 336.969 48.3646 336.969 49.7188C336.969 50.8646 337.01 51.9688 337.094 53.0312C337.177 54.0729 337.292 55.0417 337.438 55.9375C337.583 56.8125 337.76 57.5938 337.969 58.2812C338.177 58.9688 338.417 59.5104 338.688 59.9062C339.083 60.4479 339.51 60.8542 339.969 61.125C340.427 61.3958 340.812 61.5833 341.125 61.6875C341.542 61.8125 341.833 61.9271 342 62.0312C342.188 62.1146 342.281 62.2396 342.281 62.4062C342.281 62.5312 342.177 62.6458 341.969 62.75C341.781 62.8542 341.458 62.9062 341 62.9062C340.562 62.9062 340.083 62.875 339.562 62.8125C339.042 62.7292 338.5 62.6458 337.938 62.5625C337.375 62.4792 336.792 62.4062 336.188 62.3438C335.583 62.2604 334.99 62.2188 334.406 62.2188C333.823 62.2188 333.229 62.2396 332.625 62.2812C332.021 62.3229 331.438 62.3646 330.875 62.4062C330.333 62.4479 329.833 62.4896 329.375 62.5312C328.917 62.5729 328.552 62.5938 328.281 62.5938C327.469 62.5938 327.062 62.3333 327.062 61.8125C327.062 61.625 327.125 61.4688 327.25 61.3438C327.396 61.1979 327.646 61.1042 328 61.0625C328.292 61.0417 328.552 61.0208 328.781 61C329.01 60.9792 329.24 60.9688 329.469 60.9688C329.719 60.9479 329.969 60.9271 330.219 60.9062C330.49 60.8854 330.802 60.8542 331.156 60.8125C331.823 60.7083 332.271 60.4688 332.5 60.0938C332.75 59.6979 332.875 59.1667 332.875 58.5C332.875 57.3542 332.771 55.9583 332.562 54.3125C332.375 52.6667 332.115 50.8542 331.781 48.875C331.448 46.8958 331.042 44.8021 330.562 42.5938C330.104 40.3646 329.615 38.0938 329.094 35.7812C328.844 34.5938 328.552 33.7083 328.219 33.125C327.906 32.5417 327.448 32.25 326.844 32.25C326.531 32.25 326.208 32.3125 325.875 32.4375C325.542 32.5417 325.208 32.6667 324.875 32.8125C324.562 32.9375 324.26 33.0625 323.969 33.1875C323.677 33.2917 323.406 33.3438 323.156 33.3438C322.76 33.3438 322.562 33.1771 322.562 32.8438C322.562 32.5729 322.667 32.3854 322.875 32.2812C323.104 32.1562 323.344 32.0417 323.594 31.9375C324.177 31.7083 324.802 31.4167 325.469 31.0625C326.156 30.7083 326.896 30.2292 327.688 29.625C328.458 29.0208 329.146 28.375 329.75 27.6875C330.354 27 330.875 26.3646 331.312 25.7812C331.75 25.1979 332.104 24.7188 332.375 24.3438C332.646 23.9479 332.854 23.75 333 23.75ZM361.094 30.1562C361.573 29.9896 362.198 29.8333 362.969 29.6875C363.76 29.5208 364.521 29.3542 365.25 29.1875C366.729 28.8333 367.958 28.3542 368.938 27.75C369.917 27.1458 370.74 26.4062 371.406 25.5312C372.094 24.6354 372.677 23.6146 373.156 22.4688C373.635 21.3021 374.115 19.9792 374.594 18.5C375.01 17.2083 375.427 16.3021 375.844 15.7812C376.281 15.2396 376.76 14.9688 377.281 14.9688C377.76 14.9688 378.094 15.1458 378.281 15.5C378.469 15.8542 378.562 16.3229 378.562 16.9062C378.562 17.4688 378.469 18.1979 378.281 19.0938C378.094 19.9688 377.875 20.8958 377.625 21.875C377.396 22.8542 377.188 23.8229 377 24.7812C376.812 25.7188 376.719 26.5417 376.719 27.25C376.719 27.5833 376.781 27.8854 376.906 28.1562C377.052 28.4062 377.333 28.5312 377.75 28.5312C378 28.5312 378.302 28.5104 378.656 28.4688C379.01 28.4271 379.385 28.3854 379.781 28.3438C380.177 28.3021 380.583 28.2604 381 28.2188C381.438 28.1771 381.844 28.1562 382.219 28.1562C383.115 28.1562 383.562 28.4375 383.562 29C383.562 29.2917 383.448 29.5 383.219 29.625C382.99 29.75 382.677 29.8125 382.281 29.8125C381.99 29.8125 381.635 29.8229 381.219 29.8438C380.802 29.8646 380.354 29.9167 379.875 30C379.396 30.0625 378.917 30.1562 378.438 30.2812C377.958 30.4062 377.51 30.5729 377.094 30.7812C376.51 31.0729 376.031 31.4375 375.656 31.875C375.302 32.3125 375.01 32.7604 374.781 33.2188C374.427 33.9479 374.052 34.9479 373.656 36.2188C373.26 37.4896 372.896 38.9062 372.562 40.4688C372.229 42.0104 371.948 43.6354 371.719 45.3438C371.51 47.0312 371.406 48.6667 371.406 50.25C371.406 52.4792 371.594 54.3958 371.969 56C372.344 57.5833 372.865 58.8958 373.531 59.9375C374.198 60.9792 374.99 61.75 375.906 62.25C376.823 62.7292 377.812 62.9688 378.875 62.9688C379.708 62.9688 380.417 62.8542 381 62.625C381.583 62.375 382.062 62.0625 382.438 61.6875C382.812 61.2917 383.083 60.8646 383.25 60.4062C383.417 59.9271 383.5 59.4583 383.5 59C383.5 58.4375 383.344 57.9688 383.031 57.5938C382.74 57.1979 382.406 56.8229 382.031 56.4688C381.656 56.1146 381.312 55.7292 381 55.3125C380.708 54.8958 380.562 54.3542 380.562 53.6875C380.562 52.8542 380.823 52.1562 381.344 51.5938C381.885 51.0312 382.625 50.75 383.562 50.75C383.979 50.75 384.375 50.8229 384.75 50.9688C385.146 51.1146 385.49 51.3542 385.781 51.6875C386.094 52.0208 386.344 52.4479 386.531 52.9688C386.719 53.4688 386.812 54.0729 386.812 54.7812C386.812 56.0104 386.625 57.2396 386.25 58.4688C385.875 59.6771 385.281 60.7708 384.469 61.75C383.656 62.7083 382.604 63.4896 381.312 64.0938C380.021 64.7188 378.448 65.0312 376.594 65.0312C374.51 65.0312 372.635 64.6042 370.969 63.75C369.302 62.875 367.969 61.6979 366.969 60.2188C366.073 58.8438 365.417 57.2917 365 55.5625C364.583 53.8125 364.375 52.0417 364.375 50.25C364.375 48.1667 364.531 46.1562 364.844 44.2188C365.156 42.2604 365.5 40.4896 365.875 38.9062C366.25 37.3021 366.594 35.9271 366.906 34.7812C367.219 33.6146 367.375 32.7708 367.375 32.25C367.375 31.875 367.271 31.6458 367.062 31.5625C366.854 31.4792 366.573 31.4375 366.219 31.4375C366.01 31.4375 365.719 31.4479 365.344 31.4688C364.99 31.4896 364.594 31.5104 364.156 31.5312C363.719 31.5521 363.26 31.5729 362.781 31.5938C362.302 31.6146 361.844 31.625 361.406 31.625C360.635 31.625 360.25 31.4062 360.25 30.9688C360.25 30.6146 360.531 30.3438 361.094 30.1562ZM396.719 24.125C396.719 24.375 396.708 24.7292 396.688 25.1875C396.667 25.625 396.656 26.0833 396.656 26.5625C396.656 27.1667 396.688 27.8125 396.75 28.5C396.833 29.1667 396.927 29.7917 397.031 30.375C397.156 30.9375 397.271 31.4167 397.375 31.8125C397.5 32.1875 397.604 32.375 397.688 32.375C397.771 32.375 397.885 32.0729 398.031 31.4688C398.198 30.8646 398.427 30.1042 398.719 29.1875C399.031 28.2708 399.427 27.2917 399.906 26.25C400.385 25.1875 401 24.1979 401.75 23.2812C402.5 22.3646 403.396 21.6042 404.438 21C405.5 20.3958 406.75 20.0938 408.188 20.0938C409.521 20.0938 410.635 20.3229 411.531 20.7812C412.448 21.2396 413.177 21.8125 413.719 22.5C414.26 23.1875 414.646 23.9375 414.875 24.75C415.104 25.5417 415.219 26.2917 415.219 27C415.219 28.1042 415.073 29.0729 414.781 29.9062C414.49 30.7188 414.094 31.3958 413.594 31.9375C413.115 32.4792 412.562 32.8958 411.938 33.1875C411.312 33.4583 410.677 33.5938 410.031 33.5938C408.844 33.5938 407.875 33.3125 407.125 32.75C406.375 32.1875 406 31.3646 406 30.2812C406 29.6979 406.073 29.1979 406.219 28.7812C406.385 28.3646 406.594 28.0104 406.844 27.7188C407.115 27.4271 407.427 27.1875 407.781 27C408.156 26.7917 408.562 26.625 409 26.5C409.896 26.2292 410.5 25.8958 410.812 25.5C411.146 25.1042 411.312 24.6458 411.312 24.125C411.312 23.8125 411.25 23.5104 411.125 23.2188C411.021 22.9271 410.833 22.6667 410.562 22.4375C410.312 22.1875 409.979 21.9896 409.562 21.8438C409.167 21.6979 408.677 21.625 408.094 21.625C406.906 21.625 405.865 21.9062 404.969 22.4688C404.073 23.0104 403.292 23.75 402.625 24.6875C401.958 25.6042 401.406 26.6667 400.969 27.875C400.531 29.0833 400.177 30.3542 399.906 31.6875C399.635 33 399.438 34.3333 399.312 35.6875C399.208 37.0208 399.156 38.2708 399.156 39.4375C399.156 40.5 399.198 41.6562 399.281 42.9062C399.365 44.1354 399.469 45.375 399.594 46.625C399.74 47.875 399.896 49.0938 400.062 50.2812C400.229 51.4688 400.385 52.5521 400.531 53.5312C400.698 54.5104 400.844 55.3542 400.969 56.0625C401.094 56.7708 401.188 57.2604 401.25 57.5312C401.479 58.4688 401.833 59.125 402.312 59.5C402.812 59.8542 403.469 60.0312 404.281 60.0312C404.635 60.0312 405 60.0208 405.375 60C405.771 59.9792 406.062 59.9688 406.25 59.9688C406.812 59.9688 407.094 60.1771 407.094 60.5938C407.094 60.9271 406.938 61.1458 406.625 61.25C406.375 61.3542 405.927 61.4167 405.281 61.4375C404.656 61.4583 403.917 61.4792 403.062 61.5C402.229 61.5208 401.323 61.5521 400.344 61.5938C399.365 61.6354 398.417 61.7083 397.5 61.8125C396.479 61.9375 395.49 62.1146 394.531 62.3438C393.573 62.5521 392.688 62.7604 391.875 62.9688C391.062 63.1562 390.344 63.3229 389.719 63.4688C389.094 63.6146 388.594 63.6875 388.219 63.6875C387.823 63.6875 387.552 63.6042 387.406 63.4375C387.26 63.2708 387.188 63.0938 387.188 62.9062C387.188 62.5938 387.312 62.375 387.562 62.25C387.833 62.1042 388.198 61.9583 388.656 61.8125C389.01 61.7083 389.427 61.6042 389.906 61.5C390.406 61.375 390.99 61.1667 391.656 60.875C392.323 60.5833 392.781 60.1979 393.031 59.7188C393.302 59.2188 393.438 58.4688 393.438 57.4688C393.438 57.1562 393.417 56.6354 393.375 55.9062C393.333 55.1562 393.271 54.2708 393.188 53.25C393.125 52.2292 393.042 51.1146 392.938 49.9062C392.854 48.6771 392.76 47.4271 392.656 46.1562C392.552 44.8646 392.438 43.5833 392.312 42.3125C392.208 41.0417 392.104 39.8542 392 38.75C391.896 37.625 391.792 36.625 391.688 35.75C391.604 34.875 391.531 34.1771 391.469 33.6562C391.385 33.0312 391.26 32.5417 391.094 32.1875C390.927 31.8125 390.729 31.5312 390.5 31.3438C390.271 31.1562 390 31.0417 389.688 31C389.396 30.9375 389.073 30.9062 388.719 30.9062H387.438C387.333 30.9062 387.198 30.9062 387.031 30.9062C386.885 30.8854 386.74 30.8542 386.594 30.8125C386.448 30.75 386.323 30.6667 386.219 30.5625C386.135 30.4583 386.094 30.3229 386.094 30.1562C386.094 29.9271 386.188 29.7604 386.375 29.6562C386.562 29.5521 386.792 29.4792 387.062 29.4375C388.104 29.3125 389.042 29.1354 389.875 28.9062C390.729 28.6771 391.562 28.2604 392.375 27.6562C392.875 27.2604 393.396 26.7396 393.938 26.0938C394.5 25.4271 394.958 24.7292 395.312 24C395.562 23.4792 395.833 23.2188 396.125 23.2188C396.396 23.2188 396.562 23.3229 396.625 23.5312C396.688 23.7396 396.719 23.9375 396.719 24.125ZM425.094 13.875C426.323 13.875 427.302 14.1979 428.031 14.8438C428.76 15.4896 429.125 16.4062 429.125 17.5938C429.125 18.3854 429 19.0521 428.75 19.5938C428.5 20.1146 428.177 20.5417 427.781 20.875C427.385 21.1875 426.948 21.4167 426.469 21.5625C426.01 21.6875 425.552 21.75 425.094 21.75C424.698 21.75 424.281 21.6875 423.844 21.5625C423.406 21.4375 423 21.2292 422.625 20.9375C422.25 20.625 421.938 20.2292 421.688 19.75C421.458 19.25 421.344 18.6354 421.344 17.9062C421.344 17.1354 421.469 16.5 421.719 16C421.969 15.4792 422.281 15.0625 422.656 14.75C423.031 14.4375 423.438 14.2188 423.875 14.0938C424.312 13.9479 424.719 13.875 425.094 13.875ZM429.531 24.125C429.74 24.125 429.844 24.3646 429.844 24.8438C429.844 25.1562 429.802 25.6771 429.719 26.4062C429.656 27.1146 429.573 27.875 429.469 28.6875C429.302 29.9792 429.135 31.4167 428.969 33C428.802 34.5625 428.635 36.1771 428.469 37.8438C428.323 39.4896 428.177 41.125 428.031 42.75C427.906 44.375 427.792 45.8854 427.688 47.2812C427.583 48.6562 427.5 49.875 427.438 50.9375C427.375 51.9792 427.344 52.75 427.344 53.25C427.344 53.8958 427.385 54.4271 427.469 54.8438C427.552 55.2604 427.656 55.6042 427.781 55.875C427.906 56.1458 428.042 56.3646 428.188 56.5312C428.354 56.6979 428.521 56.8438 428.688 56.9688C428.875 57.0938 429.104 57.2083 429.375 57.3125C429.646 57.4167 429.938 57.5208 430.25 57.625C430.562 57.7083 430.875 57.7812 431.188 57.8438C431.521 57.9062 431.823 57.9479 432.094 57.9688C432.531 58.0521 432.885 58.1146 433.156 58.1562C433.427 58.1979 433.562 58.3333 433.562 58.5625C433.562 58.9792 433.115 59.1875 432.219 59.1875C431.594 59.1875 430.969 59.1458 430.344 59.0625C429.719 58.9583 429.073 58.8438 428.406 58.7188C427.76 58.5938 427.083 58.4896 426.375 58.4062C425.667 58.3021 424.906 58.25 424.094 58.25C423.344 58.25 422.667 58.2708 422.062 58.3125C421.458 58.3542 420.906 58.4062 420.406 58.4688C419.906 58.5312 419.438 58.5833 419 58.625C418.562 58.6667 418.125 58.6875 417.688 58.6875C417.333 58.6875 417.01 58.6458 416.719 58.5625C416.427 58.4583 416.281 58.2604 416.281 57.9688C416.281 57.6771 416.438 57.4792 416.75 57.375C417.083 57.25 417.417 57.1562 417.75 57.0938C418.167 57.0104 418.573 56.9167 418.969 56.8125C419.365 56.7083 419.719 56.5521 420.031 56.3438C420.365 56.1146 420.635 55.8229 420.844 55.4688C421.073 55.0938 421.219 54.6146 421.281 54.0312C421.365 52.8854 421.427 51.7188 421.469 50.5312C421.51 49.3438 421.542 48.1771 421.562 47.0312C421.583 45.8646 421.594 44.7396 421.594 43.6562C421.594 42.5521 421.594 41.5208 421.594 40.5625C421.594 39.4167 421.594 38.375 421.594 37.4375C421.594 36.4792 421.573 35.6667 421.531 35C421.49 33.9375 421.365 33.1042 421.156 32.5C420.969 31.8958 420.688 31.4479 420.312 31.1562C419.958 30.8646 419.5 30.6771 418.938 30.5938C418.375 30.4896 417.698 30.4062 416.906 30.3438C416.677 30.3021 416.49 30.2292 416.344 30.125C416.219 30.0208 416.156 29.8542 416.156 29.625C416.156 29.2292 416.469 29 417.094 28.9375C417.406 28.9167 417.802 28.8854 418.281 28.8438C418.76 28.7812 419.312 28.6979 419.938 28.5938C420.583 28.4896 421.281 28.3438 422.031 28.1562C422.781 27.9479 423.573 27.6667 424.406 27.3125C425.323 26.9375 426.073 26.5625 426.656 26.1875C427.26 25.8125 427.75 25.4792 428.125 25.1875C428.5 24.875 428.792 24.625 429 24.4375C429.208 24.2292 429.385 24.125 429.531 24.125ZM460.094 47.4375C460.385 47.9167 460.646 48.5625 460.875 49.375C461.125 50.1875 461.25 51.0104 461.25 51.8438C461.25 53.3646 461 54.7292 460.5 55.9375C460 57.125 459.281 58.1354 458.344 58.9688C457.406 59.7812 456.271 60.4062 454.938 60.8438C453.625 61.2812 452.146 61.5 450.5 61.5C448.125 61.5 446 61.1042 444.125 60.3125C442.271 59.5 440.708 58.375 439.438 56.9375C438.167 55.5 437.198 53.7917 436.531 51.8125C435.865 49.8125 435.531 47.625 435.531 45.25C435.531 43.1042 435.76 41.1562 436.219 39.4062C436.677 37.6562 437.302 36.0938 438.094 34.7188C438.885 33.3438 439.802 32.1458 440.844 31.125C441.885 30.1042 442.99 29.2604 444.156 28.5938C445.323 27.9271 446.51 27.4375 447.719 27.125C448.927 26.7917 450.094 26.625 451.219 26.625C452.323 26.625 453.469 26.7708 454.656 27.0625C455.844 27.3542 456.927 27.8542 457.906 28.5625C458.906 29.2708 459.719 30.2083 460.344 31.375C460.99 32.5208 461.312 33.9688 461.312 35.7188C461.312 37.2396 461.083 38.5729 460.625 39.7188C460.188 40.8646 459.604 41.8542 458.875 42.6875C458.146 43.5208 457.312 44.2083 456.375 44.75C455.458 45.2917 454.51 45.7292 453.531 46.0625C452.573 46.375 451.625 46.5938 450.688 46.7188C449.771 46.8438 448.958 46.9062 448.25 46.9062C447.229 46.9062 446.229 46.8333 445.25 46.6875C444.292 46.5417 443.542 46.3854 443 46.2188C443.083 47.8438 443.333 49.4167 443.75 50.9375C444.188 52.4375 444.802 53.7604 445.594 54.9062C446.385 56.0521 447.365 56.9688 448.531 57.6562C449.719 58.3438 451.104 58.6875 452.688 58.6875C453.792 58.6875 454.74 58.5 455.531 58.125C456.344 57.75 457.01 57.25 457.531 56.625C458.052 55.9792 458.438 55.2396 458.688 54.4062C458.938 53.5729 459.062 52.6979 459.062 51.7812C459.062 51.2396 459.021 50.6771 458.938 50.0938C458.875 49.5104 458.75 48.9583 458.562 48.4375C458.438 48.125 458.333 47.8333 458.25 47.5625C458.167 47.2917 458.125 47.0729 458.125 46.9062C458.125 46.4896 458.312 46.2812 458.688 46.2812C458.875 46.2812 459.094 46.375 459.344 46.5625C459.615 46.75 459.865 47.0417 460.094 47.4375ZM442.875 44.1562C443.417 44.3229 444.031 44.4688 444.719 44.5938C445.406 44.6979 446.271 44.75 447.312 44.75C448.521 44.75 449.635 44.5208 450.656 44.0625C451.677 43.6042 452.552 42.9688 453.281 42.1562C454.01 41.3229 454.583 40.3229 455 39.1562C455.417 37.9896 455.625 36.6875 455.625 35.25C455.625 33.9792 455.479 32.9167 455.188 32.0625C454.917 31.1875 454.552 30.4896 454.094 29.9688C453.635 29.4479 453.104 29.0833 452.5 28.875C451.917 28.6458 451.312 28.5312 450.688 28.5312C449.896 28.5312 449.042 28.7708 448.125 29.25C447.208 29.7292 446.354 30.5625 445.562 31.75C444.792 32.9375 444.146 34.5417 443.625 36.5625C443.125 38.5625 442.875 41.0938 442.875 44.1562ZM476.75 23.9375C477.604 23.9375 478.323 23.9792 478.906 24.0625C479.51 24.1458 480.021 24.25 480.438 24.375C480.875 24.4792 481.25 24.5729 481.562 24.6562C481.875 24.7396 482.188 24.7812 482.5 24.7812C482.854 24.7812 483.125 24.5938 483.312 24.2188C483.521 23.8438 483.719 23.3854 483.906 22.8438C484.177 22.1146 484.5 21.75 484.875 21.75C485.208 21.75 485.417 21.8542 485.5 22.0625C485.604 22.2708 485.656 22.4688 485.656 22.6562C485.656 22.9062 485.625 23.1667 485.562 23.4375C485.521 23.6875 485.448 24.0208 485.344 24.4375C485.24 24.8542 485.115 25.375 484.969 26C484.844 26.625 484.708 27.4062 484.562 28.3438C484.438 29.1146 484.333 29.7812 484.25 30.3438C484.188 30.9062 484.135 31.4062 484.094 31.8438C484.073 32.2812 484.042 32.6771 484 33.0312C483.958 33.3854 483.906 33.75 483.844 34.125C483.719 34.9167 483.448 35.3125 483.031 35.3125C482.76 35.3125 482.583 35.1875 482.5 34.9375C482.417 34.6667 482.375 34.375 482.375 34.0625V31.625C482.375 30.3958 482.229 29.3646 481.938 28.5312C481.667 27.6979 481.281 27.0312 480.781 26.5312C480.302 26.0312 479.719 25.6771 479.031 25.4688C478.365 25.2604 477.646 25.1562 476.875 25.1562C476.188 25.1562 475.521 25.2708 474.875 25.5C474.25 25.7292 473.698 26.0729 473.219 26.5312C472.74 26.9688 472.354 27.5104 472.062 28.1562C471.771 28.8021 471.625 29.5312 471.625 30.3438C471.625 31.4062 471.875 32.4375 472.375 33.4375C472.875 34.4375 473.531 35.4167 474.344 36.375C475.156 37.3333 476.073 38.3021 477.094 39.2812C478.135 40.2396 479.198 41.2292 480.281 42.25C481.385 43.2708 482.448 44.3333 483.469 45.4375C484.51 46.5417 485.438 47.7188 486.25 48.9688C487.062 50.1979 487.719 51.5104 488.219 52.9062C488.719 54.3021 488.969 55.8021 488.969 57.4062C488.969 59.5521 488.635 61.4583 487.969 63.125C487.302 64.7708 486.406 66.1562 485.281 67.2812C484.156 68.4062 482.844 69.2604 481.344 69.8438C479.844 70.4271 478.25 70.7188 476.562 70.7188C475.396 70.7188 474.302 70.5938 473.281 70.3438C472.281 70.0938 471.354 69.7708 470.5 69.375C469.667 68.9792 468.917 68.5208 468.25 68C467.583 67.5 467.021 67 466.562 66.5C465.708 65.5417 464.979 64.8125 464.375 64.3125C463.771 63.8125 463.115 63.5625 462.406 63.5625C462.031 63.5625 461.625 63.6979 461.188 63.9688C460.75 64.2396 460.312 64.5312 459.875 64.8438C459.458 65.1562 459.062 65.4479 458.688 65.7188C458.312 65.9896 458 66.125 457.75 66.125C457.521 66.125 457.354 66.0521 457.25 65.9062C457.146 65.7812 457.094 65.6562 457.094 65.5312C457.094 65.2812 457.25 65.0104 457.562 64.7188C457.688 64.5938 457.927 64.3646 458.281 64.0312C458.656 63.6979 459.115 63.2604 459.656 62.7188C460.198 62.1771 460.802 61.5104 461.469 60.7188C462.156 59.9271 462.875 59.0104 463.625 57.9688C464.333 56.9896 464.917 56.0729 465.375 55.2188C465.833 54.3438 466.229 53.5938 466.562 52.9688C466.896 52.3229 467.188 51.8125 467.438 51.4375C467.708 51.0625 468 50.875 468.312 50.875C468.625 50.875 468.823 50.9688 468.906 51.1562C469.01 51.3438 469.062 51.5521 469.062 51.7812C469.062 52.0938 468.948 52.5 468.719 53C468.49 53.5 468.24 54.1042 467.969 54.8125C467.719 55.5208 467.479 56.3438 467.25 57.2812C467.021 58.2188 466.906 59.2812 466.906 60.4688C466.906 61.1562 467.042 61.9583 467.312 62.875C467.583 63.7917 468.021 64.6562 468.625 65.4688C469.229 66.2812 470.021 66.9688 471 67.5312C472 68.1146 473.208 68.4062 474.625 68.4062C475.75 68.4062 476.76 68.1979 477.656 67.7812C478.573 67.3646 479.354 66.7708 480 66C480.646 65.25 481.135 64.3542 481.469 63.3125C481.823 62.25 482 61.0729 482 59.7812C482 58.1354 481.615 56.5521 480.844 55.0312C480.073 53.4896 479.104 51.9896 477.938 50.5312C476.771 49.0521 475.51 47.6042 474.156 46.1875C472.802 44.7708 471.542 43.3646 470.375 41.9688C469.208 40.5521 468.24 39.1354 467.469 37.7188C466.698 36.3021 466.312 34.8646 466.312 33.4062C466.312 31.7812 466.615 30.375 467.219 29.1875C467.823 27.9792 468.615 26.9896 469.594 26.2188C470.594 25.4479 471.708 24.875 472.938 24.5C474.188 24.125 475.458 23.9375 476.75 23.9375Z" fill="white"/>
</svg>
